<svg xmlns="http://www.w3.org/2000/svg" width="112" height="20" viewBox="0 0 112 20">
    <path d="M5.49,2.43C5.081,3.536,2.236,11.1.8,14.832c-.605,1.523-1.583,3.9.32,4.914A2.875,2.875,0,0,0,2.627,20H15.341a4.722,4.722,0,0,0,2.632-1.033,5.146,5.146,0,0,0,1.76-2.63,6.457,6.457,0,0,0-.391-4.678,4.409,4.409,0,0,0-2.33-2.121.3.3,0,0,1,.036-.417,5.544,5.544,0,0,0,1.494-6.093c-.072-.163-.143-.344-.232-.507A4.708,4.708,0,0,0,13.83,0H9.846c-1.8.073-3.52.145-4.356,2.43" transform="translate(0 0)" fill="#fff"/><path d="M13.083,1.4h-2.9v6.89a1.331,1.331,0,0,1,.782.744h2.276c2.649,0,4.179-1.5,4.179-3.844,0-2.285-1.352-3.79-4.339-3.79" transform="translate(0 0)" fill="#3f51b5"/><path d="M13.58,10.1H11a1.4,1.4,0,0,1-.8.8V18.6h3.165v.018c3.307,0,5.281-1.342,5.281-4.261,0-3.046-1.921-4.261-5.068-4.261" transform="translate(0 0)" fill="#f05a2b"/><path d="M8.406,9.991H4.192L1.56,16.5a1.432,1.432,0,0,0,.765,2.14c.142.036,3.681,0,3.681,0H9.224V10.9a1.421,1.421,0,0,1-.818-.907" transform="translate(0 0)" fill="#282560" fill-rule="evenodd"/><path d="M9.206,8.3V1.4H8.6A1.789,1.789,0,0,0,6.983,2.43C6.788,2.847,6.574,3.3,6.4,3.7L4.529,9.066h3.93A1.415,1.415,0,0,1,9.206,8.3" transform="translate(0 0)" fill="#f49021" fill-rule="evenodd"/>
    <rect width="20" height="20" transform="translate(0 0)" fill="none"/>
    <path transform="translate(25,2)" d="M0,13.187H1.669L3.076,9.692h5.6l1.406,3.495h1.757L6.692.671H5.128Zm4.657-7.45c.422-1.06.844-2.136,1.23-3.145h.035c.387,1.023.791,2.083,1.2,3.089l1,2.578H3.638Zm9.12,7.2.034-.018a4.707,4.707,0,0,0,2.074.476A4.285,4.285,0,0,0,20.3,9.244c0-.11,0-.219,0-.328A4.145,4.145,0,0,0,16.434,4.51c-.078,0-.155-.007-.232-.008a3.937,3.937,0,0,0-2.391.76l-.034-.018V4.7H12.23V17h1.547Zm0-1.518V6.69a3.479,3.479,0,0,1,2.179-.759,2.893,2.893,0,0,1,2.782,3q0,.073-.009.147a2.769,2.769,0,0,1-2.54,2.977,2.808,2.808,0,0,1-.29.007,4.736,4.736,0,0,1-2.122-.639Zm9.138,1.518.034-.018a4.707,4.707,0,0,0,2.074.476,4.286,4.286,0,0,0,4.411-4.158c0-.109,0-.218,0-.326a4.145,4.145,0,0,0-3.863-4.4c-.077-.005-.155-.008-.232-.009a3.939,3.939,0,0,0-2.39.76l-.035-.018V4.7H21.365V17h1.547Zm0-1.518V6.69a3.479,3.479,0,0,1,2.179-.759,2.893,2.893,0,0,1,2.782,3q0,.073-.009.147a2.769,2.769,0,0,1-2.54,2.977,2.808,2.808,0,0,1-.29.007,4.935,4.935,0,0,1-2.122-.639Zm10.754,1.765h3.3a6.591,6.591,0,0,0,3.883-.83A3.4,3.4,0,0,0,42.279,9.5a2.809,2.809,0,0,0-2.39-2.913V6.551A2.678,2.678,0,0,0,41.768,3.9a2.849,2.849,0,0,0-1.459-2.56,6.052,6.052,0,0,0-3.3-.653H33.667v12.5ZM35.3,6.144V2.172H36.8a4.69,4.69,0,0,1,2.478.423A1.71,1.71,0,0,1,40.154,4.2c0,1.36-1.125,1.959-2.39,1.959Zm0,5.561V7.414h2.391c1.862,0,2.952.741,2.952,2.136a1.982,1.982,0,0,1-.805,1.642,4.675,4.675,0,0,1-2.759.529Zm8.822.723a3.053,3.053,0,0,0,2.319.954,4.2,4.2,0,0,0,2.936-1.271l.034.018v1.06h1.547V4.678H49.414v5.79a3.6,3.6,0,0,1-2.653,1.448,1.621,1.621,0,0,1-1.335-.6,2.543,2.543,0,0,1-.4-1.765V4.66H43.476V9.868a3.583,3.583,0,0,0,.651,2.56Zm8.14-10.662a1.09,1.09,0,1,0,1.09-1.1,1.122,1.122,0,0,0-1.09,1.1m.317,11.421h1.54V4.678H52.575Zm3.216,0h1.544V0H55.795Zm2.636-4.113a4.084,4.084,0,0,0,3.85,4.3c.1,0,.2.007.3,0a3.963,3.963,0,0,0,2.372-.723l.035.018v.512h1.547V0H64.989V4.943l-.035.018a4.77,4.77,0,0,0-2.039-.442,4.341,4.341,0,0,0-4.488,4.19c0,.122,0,.245,0,.367ZM60,8.984a2.886,2.886,0,0,1,2.653-3.1c.082-.006.164-.009.246-.008a4.715,4.715,0,0,1,2.074.529v4.853a3.777,3.777,0,0,1-2.214.724A2.726,2.726,0,0,1,59.986,9.3,2.817,2.817,0,0,1,60,8.982ZM75.62,9.39a2.76,2.76,0,0,0,.035-.759,3.788,3.788,0,0,0-3.443-4.1,3.886,3.886,0,0,0-.4-.013,4.232,4.232,0,0,0-4.221,4.241c0,.064,0,.127,0,.191a4.321,4.321,0,0,0,4.2,4.439c.129,0,.259,0,.388-.008a5.965,5.965,0,0,0,3.041-.794V10.927a4.764,4.764,0,0,1-2.935,1.041,2.9,2.9,0,0,1-3.131-2.6Zm-3.847-3.5a2.3,2.3,0,0,1,2.389,2.212l0,.047H69.173A2.628,2.628,0,0,1,71.767,5.9ZM76.8,13.186h1.547V7.679a2.74,2.74,0,0,1,2.478-1.5,2.269,2.269,0,0,1,.6.071V4.713a2.937,2.937,0,0,0-.545-.071,3.113,3.113,0,0,0-2.512,1.324l-.035-.018V4.713H76.782l.018,8.474Z" fill="#282560"/>
</svg>