<?xml version="1.0" encoding="UTF-8"?>
<svg id="Layer_1" xmlns="http://www.w3.org/2000/svg" version="1.1" viewBox="0 0 234.8 43.7">
  <!-- Generator: Adobe Illustrator 29.6.1, SVG Export Plug-In . SVG Version: 2.1.1 Build 9)  -->
  <defs>
    <style>
      .st0 {
        fill: #fff;
      }

      .st1 {
        fill: #3f51b5;
      }

      .st2 {
        fill: #f49021;
      }

      .st2, .st3 {
        fill-rule: evenodd;
      }

      .st4 {
        fill: #f05a2b;
      }

      .st3 {
        fill: #282560;
      }
    </style>
  </defs>
  <path class="st0" d="M52.7,35.5h3.6l3-7.6h12.1l3,7.6h3.8l-11.2-27.1h-3.4l-11.1,27.1ZM62.8,19.3c.9-2.3,1.8-4.6,2.7-6.8h0c.8,2.2,1.7,4.5,2.6,6.7l2.2,5.6h-9.7l2.2-5.5ZM82.5,34.9h0c1.4.7,2.9,1,4.5,1,5.3,0,9.6-3.8,9.6-9.7s-4-9.6-8.9-9.6-3.7.5-5.2,1.6h0v-1.2h-3.3v26.7h3.3v-8.8ZM82.5,31.7v-10.3c1.3-1.1,3-1.6,4.7-1.6,3.6,0,6,3.1,6,6.8s-2.4,6.5-6.1,6.5c-1.6-.1-3.2-.5-4.6-1.4ZM102.3,34.9h0c1.4.7,2.9,1,4.5,1,5.3,0,9.6-3.8,9.6-9.7s-4-9.6-8.9-9.6-3.7.5-5.2,1.6h0v-1.2h-3.3v26.7h3.3v-8.8ZM102.3,31.7v-10.3c1.3-1.1,3-1.6,4.7-1.6,3.6,0,6,3.1,6,6.8s-2.4,6.5-6.1,6.5c-1.6-.1-3.2-.5-4.6-1.4ZM125.6,35.5h7.2c3.9,0,6.5-.5,8.4-1.8,2-1.4,3.2-3.8,3.1-6.2,0-3.5-2-5.6-5.2-6.3h0c2.2-.9,4.1-2.7,4.1-5.8,0-2.3-1.1-4.4-3.2-5.5-1.8-1.1-3.9-1.4-7.2-1.4h-7.2v27.1ZM129.2,20.2v-8.6h3.2c2.7,0,4.1.2,5.4.9,1.3.7,2,2,1.9,3.5,0,2.9-2.4,4.2-5.2,4.2h-5.3ZM129.2,32.3v-9.3h5.2c4,0,6.4,1.6,6.4,4.6,0,1.4-.6,2.7-1.8,3.6-1.3.9-2.9,1.1-6,1.1h-3.8ZM148.3,33.8c1.3,1.4,3.1,2.1,5,2.1,2.4,0,4.7-1,6.4-2.8h0v2.3h3.4v-18.4h-3.4v12.6c-1.3,1.6-3.5,3.1-5.7,3.1-1.1,0-2.2-.4-2.9-1.3-.6-.7-.9-1.8-.9-3.8v-10.6h-3.3v11.3c0,2.7.4,4.3,1.4,5.5ZM165.9,10.7c0,1.3,1.1,2.4,2.4,2.4s2.4-1.1,2.4-2.4-1.1-2.4-2.4-2.4-2.3,1.1-2.4,2.4ZM166.6,35.5h3.3v-18.4h-3.3v18.4ZM173.5,35.5h3.4V6.9h-3.4v28.6ZM179.3,26.6c0,5.7,4,9.3,9,9.3,1.8,0,3.6-.5,5.1-1.6h0v1.1h3.3V6.9h-3.3v10.7h0c-1.4-.6-2.9-.9-4.4-.9-5.8,0-9.7,4.2-9.7,9.9ZM182.6,26.4c0-3.8,2.4-6.7,6.3-6.7,1.6,0,3.1.4,4.5,1.1v10.5c-1.4,1-3,1.5-4.8,1.6-3.7,0-6-2.8-6-6.5ZM216.5,27.3c0-.5.2-1.1,0-1.6,0-5.8-3.8-8.9-8.3-8.9s-9.1,3.8-9.1,9.6,4.2,9.6,9.9,9.6,4.6-.5,6.6-1.7v-3.6c-1.8,1.4-4,2.3-6.4,2.3-3.6,0-6.3-2-6.8-5.6h14ZM208.1,19.7c2.2,0,4.9,1.3,5.2,4.9h-10.8c.6-3.4,3.2-4.9,5.6-4.9ZM219,35.5h3.3v-11.9c1.1-2,2.9-3.3,5.4-3.3s.9,0,1.3.2v-3.3c-.4,0-.8-.2-1.2-.2-2.2,0-4.2,1.1-5.4,2.9h0v-2.7h-3.4v18.4Z"/>
  <path class="st0" d="M12.3,5.8c-.9,2.3-7,18.3-10,26.1-1.3,3.2-3.4,8.2.7,10.4,1.1.6,2,.5,3.2.5h27.2c2.1-.1,4-.9,5.6-2.2,1.9-1.4,3.1-3.4,3.8-5.5,1-3.2.7-6.9-.8-9.9-1-2.1-2.9-3.6-5-4.5-.2-.3-.2-.7,0-.9,3.6-2.9,5-8.5,3.2-12.9-.2-.3-.3-.7-.5-1.1-1.8-3.4-5.1-5.3-9.6-5.3h-8.5c-3.8.2-7.5.3-9.3,5.2Z"/>
  <path class="st1" d="M28.6,3.6h-6.2v14.5c.8.3,1.4.8,1.7,1.6h4.9c5.7,0,8.9-3.2,8.9-8.1s-2.9-8-9.3-8Z"/>
  <path class="st4" d="M29.6,22h-5.5c-.3.8-.9,1.4-1.7,1.7v16.3h6.8c7.1,0,11.3-2.8,11.3-9s-4.1-9-10.8-9Z"/>
  <path class="st3" d="M18.5,21.7h-9l-5.6,13.7c-1,2.3,0,4.1,1.6,4.5.3,0,7.9,0,7.9,0h6.9v-16.3c-.8-.3-1.5-1-1.8-1.9Z"/>
  <path class="st2" d="M20.3,18.2V3.6h-1.3c-1.5,0-2.8.8-3.5,2.2-.4.9-.9,1.8-1.3,2.7l-4,11.3h8.4c.3-.7.9-1.3,1.6-1.6Z"/>
  <path class="st0" d="M230.3,17.4h.7v1.8h.4v-1.8h.8v-.3h-1.9v.3Z"/>
  <path class="st0" d="M233.2,18.7l-.6-1.6h-.3l-.2,2.1h.3l.2-1.3.5,1.3h.2l.5-1.3.2,1.3h.3l-.2-2.1h-.4l-.6,1.6Z"/>
</svg>