<svg xmlns:svg="http://www.w3.org/2000/svg" xmlns="http://www.w3.org/2000/svg" width="32" height="32" viewBox="0 0 16 16" version="1.1">
  <path d="m 15.890961,5.3997824 a 9.275,9.275 0 0 1 -9.0950003,7.8139996 6.737,6.737 0 0 1 -1.329,-0.077 4.075,4.075 0 0 1 -3.389,-3.8439996 3.9560991,3.9560991 0 0 1 7.912,-0.056 c 0.017,0.656 -0.267,1.2309996 -0.851,1.2479996 -0.624,0 -0.916,-0.445 -0.916,-1.0449996 v -1.667 a 1.021,1.021 0 0 0 -1.014,-1.022 h -1.4 a 2.432,2.432 0 1 0 1.8,4.0529996 l 0.049,-0.073 0.049,0.081 a 1.721,1.721 0 0 0 1.467,0.7 1.939,1.939 0 0 0 1.8000003,-2.0269996 5.276,5.276 0 0 0 -0.145,-1.288 4.936,4.936 0 0 0 -9.7600003,1.069 5,5 0 0 0 4.871,4.9369996 7.717,7.717 0 0 0 0.778,0.024 10.534,10.534 0 0 0 5.6500003,-1.686 c 0.024,-0.017 0.048,0.017 0.032,0.041 a 8.292,8.292 0 0 1 -6.4600003,2.642 5.83,5.83 0 0 1 -5.936,-5.9869996 6.034,6.034 0 0 1 2.423,-4.829 5.909,5.909 0 0 1 3.486,-1.151 h 1.875 a 5.276,5.276 0 0 0 3.8930003,-1.72 0.073,0.073 0 0 1 0.04,-0.023 0.074,0.074 0 0 1 0.08,0.035 0.075,0.075 0 0 1 0.01,0.045 5.291,5.291 0 0 1 -0.818,2.366 0.073,0.073 0 0 0 0.081,0.106 5.67,5.67 0 0 0 3.941,-3.24899997 0.1,0.1 0 0 1 0.035,-0.036 0.1,0.1 0 0 1 0.1,0 0.1,0.1 0 0 1 0.036,0.035 7.187,7.187 0 0 1 0.7,4.58399997 z m -9.9590003,2.352 a 1.459,1.459 0 1 0 1.458,1.459 v -1.362 a 0.105,0.105 0 0 0 -0.1,-0.1 z" fill="#702af7" id="path2"></path>
</svg>