<?xml version="1.0" encoding="utf-8"?>
<!-- Generator: Adobe Illustrator 26.0.1, SVG Export Plug-In . SVG Version: 6.00 Build 0)  -->
<svg version="1.1" id="Layer_1" xmlns="http://www.w3.org/2000/svg" xmlns:xlink="http://www.w3.org/1999/xlink" x="0px" y="0px"
	 viewBox="0 0 349.6 103.4" style="enable-background:new 0 0 349.6 103.4;" xml:space="preserve">
<style type="text/css">
	.st0{fill:#FFFFFF;}
	.st1{fill:#27265F;}
	.st2{fill:#0099FF;}
	.st3{fill:#F49021;}
	.st4{clip-path:url(#SVGID_00000048471487156015500200000008438652654596640645_);fill:#F05A2B;}
	.st5{clip-path:url(#SVGID_00000067218615736736009140000004054215079625533099_);fill:#F05A2B;}
</style>
<g>
	<g>
		<path class="st0" d="M44.3,98.7l-0.1,0c-3.3-1.4-5.4-4.6-5.4-8.2v-0.7c0.1-0.8,0.2-1.6,0.6-2.5C19.6,84.7,4.9,68.1,4.9,48.2
			C4.9,26.6,22.5,9,44.1,9c21.6,0,39.2,17.6,39.2,39.2c0,18.4-12.5,34.1-30.3,38.2c-0.6,0.7-1.3,1.3-1.9,1.9l-0.4,0.4
			c-1,1-2.1,1.9-3.2,2.8l-0.9,0.7c-1.4,1.2-2.1,2.6-2.1,4.1c0,0.6,0.1,1.2,0.3,1.7c0.1,0.1,0.1,0.3,0,0.4
			C44.6,98.6,44.5,98.7,44.3,98.7L44.3,98.7z"/>
		<path class="st0" d="M44.1,9.3c21.5,0,39,17.4,39,39c0,18.5-12.9,34-30.2,38c-0.7,0.8-1.6,1.6-2.4,2.3c-1.3,1.3-2.7,2.4-4.1,3.6
			c-1.3,1.1-2.2,2.5-2.2,4.3c0,0.6,0.1,1.2,0.3,1.8c0.1,0.1,0,0.2-0.1,0.2c0,0-0.1,0-0.1,0c-3.1-1.3-5.3-4.4-5.3-8
			c0-0.3,0-0.5,0-0.7c0.1-0.9,0.3-1.8,0.7-2.7C20.2,84.7,5.1,68.2,5.1,48.2C5.1,26.7,22.6,9.3,44.1,9.3 M44.1,8.8
			C22.3,8.8,4.6,26.5,4.6,48.2c0,19.9,14.7,36.6,34.3,39.1c-0.3,0.8-0.4,1.5-0.5,2.3l0,0.8c0,3.7,2.2,7,5.6,8.5
			c0.1,0,0.2,0.1,0.3,0.1c0.2,0,0.4-0.1,0.6-0.3c0.1-0.2,0.1-0.4,0-0.6c-0.2-0.5-0.3-1-0.3-1.6c0-1.5,0.7-2.8,2-3.9
			c0.3-0.3,0.6-0.5,0.9-0.8c1.1-0.9,2.2-1.8,3.2-2.8l0.4-0.4c0.6-0.6,1.3-1.2,1.9-1.8c8.5-2,16.2-6.8,21.7-13.7
			c5.6-7,8.7-15.8,8.7-24.7C83.5,26.5,65.8,8.8,44.1,8.8L44.1,8.8z"/>
	</g>
	<g>
		<path class="st0" d="M44.1,9.3c21.5,0,39,17.4,39,39c0,18.5-12.9,34-30.2,38c-0.7,0.8-1.6,1.6-2.4,2.3c-1.3,1.3-2.7,2.4-4.1,3.6
			c-1.3,1.1-2.2,2.5-2.2,4.3c0,0.6,0.1,1.2,0.3,1.8c0.1,0.1,0,0.2-0.1,0.2c0,0-0.1,0-0.1,0c-3.1-1.3-5.3-4.4-5.3-8
			c0-0.3,0-0.5,0-0.7c0.1-0.9,0.3-1.8,0.7-2.7C20.2,84.7,5.1,68.2,5.1,48.2C5.1,26.7,22.6,9.3,44.1,9.3 M44.1,6.3
			c-23.1,0-42,18.8-42,42c0,20.2,14.3,37.4,33.9,41.2c0,0,0,0,0,0l0,0.1v0.1v0.7c0,4.7,2.8,8.9,7,10.7c0.4,0.2,0.9,0.3,1.3,0.3
			c1.1,0,2.1-0.6,2.7-1.5c0.5-0.9,0.6-1.9,0.2-2.8c-0.1-0.2-0.1-0.4-0.1-0.7c0-0.5,0.1-1.1,1.1-2c0.3-0.3,0.6-0.5,0.9-0.8
			c1.1-0.9,2.3-1.9,3.3-3l0.4-0.4c0.5-0.5,1-0.9,1.5-1.4c8.7-2.2,16.7-7.3,22.4-14.4c6-7.4,9.3-16.8,9.3-26.3
			C86,25.1,67.2,6.3,44.1,6.3L44.1,6.3z"/>
		<g>
			<g>
				<g>
					<g>
						<path class="st0" d="M105.4,14.6h6.9v52.5h-6.9V14.6z"/>
						<path class="st0" d="M123.2,74.2c3.4,2.2,7.3,3.7,11.3,3.7c6.8,0,11.4-4.1,11.4-10.8v-2.6l-0.1-0.1c-2.4,1.7-5.9,2.7-9.7,2.7
							c-9.7,0-17.5-7.3-17.5-17.9c0-10.1,6.9-18.7,18.5-18.7c3.7,0,6.7,0.9,9,2l6.3-1.1V67c0,10.4-7,16.9-17.9,16.9
							c-4.4,0-8.4-1.2-11.3-2.7L123.2,74.2L123.2,74.2z M136.9,61.5c3.3,0,6.7-1.2,8.9-2.9V38.9c-2.2-1.4-5.7-2.4-9-2.4
							c-7.2,0-11.8,5.5-11.8,12.4C125.2,56.1,129.9,61.5,136.9,61.5z"/>
						<path class="st0" d="M158.9,31.5h6.5V36l0.1,0.1c3.1-3.1,7.5-5.3,12.4-5.3c3.9,0,7.3,1.4,9.5,3.9c1.9,2.2,3,5,3,10.5v21.9
							h-6.5V46.3c0-3.7-0.5-5.9-1.7-7.3c-1.5-1.7-3.8-2.3-5.7-2.3c-4.1,0-8.6,2.5-11.2,5.9v24.4h-6.5L158.9,31.5L158.9,31.5z"/>
						<path class="st0" d="M200.2,14.6c2.5,0,4.6,2,4.6,4.6s-2,4.6-4.6,4.6c-2.5,0-4.6-2-4.6-4.6S197.7,14.6,200.2,14.6z
							 M196.9,31.5h6.5v35.6h-6.5V31.5z"/>
						<path class="st0" d="M216.3,54.8V37.3h-6.6v-5.9h6.6v-9.8l6.5-1.1v10.8h10.7v5.9h-10.7v16.1c0,4.4,0.7,8.5,5.3,8.5
							c1.9,0,4-0.7,5.3-1.6v6.1c-1.5,0.7-4,1.3-6.4,1.3c-2.6,0-5.8-0.7-8.1-3.3C217.1,62.6,216.3,59.7,216.3,54.8z"/>
						<path class="st0" d="M245.8,51.2c1,7,6.1,10.9,13.2,10.9c5,0,9-1.9,12.3-4.4v7c-3.2,2-8.1,3.3-12.7,3.3
							c-11,0-19.3-7.4-19.3-18.7s8.2-18.7,17.8-18.7c8.7,0,16.2,6.1,16.2,17.3c0,1.1-0.1,2.4-0.2,3.3L245.8,51.2L245.8,51.2z
							 M246,46h21c-0.6-7.1-5.8-9.5-10.1-9.5C252.2,36.5,247.1,39.4,246,46z"/>
						<path class="st0" d="M288.9,42.4V14.6h6.9v27c0,6.4,0.4,10.5,2,13.6c1.8,3.4,5.6,6.3,12.4,6.3c6.4,0,10.3-2.4,12.3-6.3
							c1.7-3.1,1.9-7.3,1.9-13.3V14.6h6.7v27c0,7.6-0.4,13.5-3.5,18.1c-3.3,5.1-9.6,8.2-17.8,8.2c-8.2,0-14.4-3.2-17.6-8.2
							C289.4,55.1,288.9,48.9,288.9,42.4z"/>
						<path class="st0" d="M337.6,14.6h6.9v52.5h-6.9V14.6z"/>
					</g>
				</g>
				<g>
					<circle class="st1" cx="44.1" cy="48.2" r="39"/>
					<g>
						<g>
							<path class="st0" d="M45.5,5.4c-0.6-0.3-1.3-0.4-1.9-0.3c-1.6,0.4-3.4,3.1-4.4,4.3c-1.4,1.6-2.6,3.4-3.6,5.3
								c-5.3,9.3-5,20.4-2.8,30.6c1.4,6.6,3.6,13,6.1,19.1l10.4,0.1c0.4,0,2.1-5.3,2.3-5.9c0.7-1.9,1.3-3.9,1.9-5.8
								c1-3.4,1.9-6.9,2.6-10.4c1-5.5,1.4-11.2,0.5-16.7c-0.7-4.3-2.1-8.4-4.4-12.2C51,11.6,48.2,6.6,45.5,5.4z M44.2,33.7
								c-3.3,0-5.9-2.7-5.9-5.9c0-3.3,2.7-5.9,5.9-5.9s5.9,2.7,5.9,5.9C50.1,31.1,47.4,33.7,44.2,33.7z"/>
							<path class="st0" d="M51.9,65.2L51.9,65.2c1.9-4.5,3.4-8.8,4.5-12.8c1.6,1,3.9,5.6,5,8.4c0.4,1.2,0.6,3.2,0.4,4.4
								c-0.4,2.6-1.3,7.2-3.6,10.4c-0.2,0.3-0.7,0.1-0.7-0.2c0.1-1,0.1-2.1,0-3c-0.1-1.7-0.9-3.3-2.1-4.5
								C54.2,66.7,52.8,65.6,51.9,65.2z"/>
							<path class="st2" d="M30.5,72.2c-0.1,1-0.1,2,0,3c0,0.4-0.5,0.6-0.7,0.2c-2.4-3.3-3.3-7.9-3.6-10.4c-0.1-1.3,0-3.3,0.4-4.4
								c1.1-2.7,3.4-7.3,5.1-8.3c1,4,2.5,8.3,4.4,12.8l0,0c-1,0.4-2.4,1.5-3.5,2.5C31.5,68.8,30.7,70.5,30.5,72.2z"/>
							<path class="st2" d="M42.7,5.5c0,0-15.9,17,0.7,58.9h-4.5C38.9,64.4,18.2,24.9,42.7,5.5z"/>
						</g>
						<g>
							<path d="M44.7,79.9L44.7,79.9L44.7,79.9z"/>
							<path class="st3" d="M34.7,85.5c-0.4-0.7-0.5-1.4-0.4-2.2c0.3-1.4,1.4-2.4,2.8-2.6c2-0.2,3.6,1.3,3.6,3.3
								c0,1-0.5,1.6-0.9,2.4c-0.5,1.1-0.8,2.1-0.9,3.3c0,0.2,0,0.4,0,0.7c0,3.6,2.1,6.7,5.3,8c0.1,0.1,0.3-0.1,0.2-0.2
								c-0.2-0.6-0.3-1.2-0.3-1.8c0-1.8,0.9-3.2,2.2-4.3c1.4-1.2,2.8-2.3,4.1-3.6c1.3-1.3,2.7-2.4,3.6-4c1-1.8,1.6-3.8,1.6-6
								c0-4.6-2.7-8.9-7-10.8c-2.1-1-4.4-1.3-6.7-0.9c-4.7,0.7-8.7,4.5-9.7,9.2c-0.4,1.7-0.3,3.5,0.1,5.2c0.2,0.8,0.4,1.6,0.8,2.3
								C33.8,84.2,34.3,84.8,34.7,85.5z"/>
							<g>
								<g>
									<defs>
										<path id="SVGID_1_" d="M34.7,85.5c-0.4-0.7-0.5-1.4-0.4-2.2c0.3-1.4,1.4-2.4,2.8-2.6c2-0.2,3.6,1.3,3.6,3.3
											c0,1-0.5,1.6-0.9,2.4c-0.5,1.1-0.8,2.1-0.9,3.3c0,0.2,0,0.4,0,0.7c0,3.6,2.1,6.7,5.3,8c0.1,0.1,0.3-0.1,0.2-0.2
											c-0.2-0.6-0.3-1.2-0.3-1.8c0-1.8,0.9-3.2,2.2-4.3c1.4-1.2,2.8-2.3,4.1-3.6c1.3-1.3,2.7-2.4,3.6-4c1-1.8,1.6-3.8,1.6-6
											c0-4.6-2.7-8.9-7-10.8c-2.1-1-4.4-1.3-6.7-0.9c-4.7,0.7-8.7,4.5-9.7,9.2c-0.4,1.7-0.3,3.5,0.1,5.2
											c0.2,0.8,0.4,1.6,0.8,2.3C33.8,84.2,34.3,84.8,34.7,85.5z"/>
									</defs>
									<clipPath id="SVGID_00000124161730200959699830000011505035801868656258_">
										<use xlink:href="#SVGID_1_"  style="overflow:visible;"/>
									</clipPath>
									<path style="clip-path:url(#SVGID_00000124161730200959699830000011505035801868656258_);fill:#F05A2B;" d="M40.5,85.3
										c0,0,11.5-8.4,4.4-18.7l14,0.8l-0.1,33.2l-19.6-0.1C39.1,100.6,34.5,88.4,40.5,85.3z"/>
								</g>
							</g>
						</g>
					</g>
				</g>
				<g>
					<circle class="st1" cx="44.1" cy="48.2" r="39"/>
					<g>
						<g>
							<path class="st0" d="M45.5,5.4c-0.6-0.3-1.3-0.4-1.9-0.3c-1.6,0.4-3.4,3.1-4.4,4.3c-1.4,1.6-2.6,3.4-3.6,5.3
								c-5.3,9.3-5,20.4-2.8,30.6c1.4,6.6,3.6,13,6.1,19.1l10.4,0.1c0.4,0,2.1-5.3,2.3-5.9c0.7-1.9,1.3-3.9,1.9-5.8
								c1-3.4,1.9-6.9,2.6-10.4c1-5.5,1.4-11.2,0.5-16.7c-0.7-4.3-2.1-8.4-4.4-12.2C51,11.6,48.2,6.6,45.5,5.4z M44.2,33.7
								c-3.3,0-5.9-2.7-5.9-5.9c0-3.3,2.7-5.9,5.9-5.9s5.9,2.7,5.9,5.9C50.1,31.1,47.4,33.7,44.2,33.7z"/>
							<path class="st0" d="M51.9,65.2L51.9,65.2c1.9-4.5,3.4-8.8,4.5-12.8c1.6,1,3.9,5.6,5,8.4c0.4,1.2,0.6,3.2,0.4,4.4
								c-0.4,2.6-1.3,7.2-3.6,10.4c-0.2,0.3-0.7,0.1-0.7-0.2c0.1-1,0.1-2.1,0-3c-0.1-1.7-0.9-3.3-2.1-4.5
								C54.2,66.7,52.8,65.6,51.9,65.2z"/>
							<path class="st2" d="M30.5,72.2c-0.1,1-0.1,2,0,3c0,0.4-0.5,0.6-0.7,0.2c-2.4-3.3-3.3-7.9-3.6-10.4c-0.1-1.3,0-3.3,0.4-4.4
								c1.1-2.7,3.4-7.3,5.1-8.3c1,4,2.5,8.3,4.4,12.8l0,0c-1,0.4-2.4,1.5-3.5,2.5C31.5,68.8,30.7,70.5,30.5,72.2z"/>
							<path class="st2" d="M42.7,5.5c0,0-15.9,17,0.7,58.9h-4.5C38.9,64.4,18.2,24.9,42.7,5.5z"/>
						</g>
						<g>
							<path d="M44.7,79.9L44.7,79.9L44.7,79.9z"/>
							<path class="st3" d="M34.7,85.5c-0.4-0.7-0.5-1.4-0.4-2.2c0.3-1.4,1.4-2.4,2.8-2.6c2-0.2,3.6,1.3,3.6,3.3
								c0,1-0.5,1.6-0.9,2.4c-0.5,1.1-0.8,2.1-0.9,3.3c0,0.2,0,0.4,0,0.7c0,3.6,2.1,6.7,5.3,8c0.1,0.1,0.3-0.1,0.2-0.2
								c-0.2-0.6-0.3-1.2-0.3-1.8c0-1.8,0.9-3.2,2.2-4.3c1.4-1.2,2.8-2.3,4.1-3.6c1.3-1.3,2.7-2.4,3.6-4c1-1.8,1.6-3.8,1.6-6
								c0-4.6-2.7-8.9-7-10.8c-2.1-1-4.4-1.3-6.7-0.9c-4.7,0.7-8.7,4.5-9.7,9.2c-0.4,1.7-0.3,3.5,0.1,5.2c0.2,0.8,0.4,1.6,0.8,2.3
								C33.8,84.2,34.3,84.8,34.7,85.5z"/>
							<g>
								<g>
									<defs>
										<path id="SVGID_00000114789979608707334650000003536205579453510290_" d="M34.7,85.5c-0.4-0.7-0.5-1.4-0.4-2.2
											c0.3-1.4,1.4-2.4,2.8-2.6c2-0.2,3.6,1.3,3.6,3.3c0,1-0.5,1.6-0.9,2.4c-0.5,1.1-0.8,2.1-0.9,3.3c0,0.2,0,0.4,0,0.7
											c0,3.6,2.1,6.7,5.3,8c0.1,0.1,0.3-0.1,0.2-0.2c-0.2-0.6-0.3-1.2-0.3-1.8c0-1.8,0.9-3.2,2.2-4.3c1.4-1.2,2.8-2.3,4.1-3.6
											c1.3-1.3,2.7-2.4,3.6-4c1-1.8,1.6-3.8,1.6-6c0-4.6-2.7-8.9-7-10.8c-2.1-1-4.4-1.3-6.7-0.9c-4.7,0.7-8.7,4.5-9.7,9.2
											c-0.4,1.7-0.3,3.5,0.1,5.2c0.2,0.8,0.4,1.6,0.8,2.3C33.8,84.2,34.3,84.8,34.7,85.5z"/>
									</defs>
									<clipPath id="SVGID_00000029036584987655005720000007086229884323525515_">
										<use xlink:href="#SVGID_00000114789979608707334650000003536205579453510290_"  style="overflow:visible;"/>
									</clipPath>
									<path style="clip-path:url(#SVGID_00000029036584987655005720000007086229884323525515_);fill:#F05A2B;" d="M40.5,85.3
										c0,0,11.5-8.4,4.4-18.7l14,0.8l-0.1,33.2l-19.6-0.1C39.1,100.6,34.5,88.4,40.5,85.3z"/>
								</g>
							</g>
						</g>
					</g>
				</g>
			</g>
		</g>
	</g>
</g>
</svg>
