<svg xmlns="http://www.w3.org/2000/svg" width="32" height="32" viewBox="0 0 16 16" fill="none" fit="" preserveAspectRatio="xMidYMid meet">
<path d="M9.39571 8.1537C9.39571 8.92455 8.77081 9.54945 7.99997 9.54945C7.22912 9.54945 6.60422 8.92455 6.60422 8.1537C6.60422 7.38285 7.22912 6.75796 7.99997 6.75796C8.77081 6.75796 9.39571 7.38285 9.39571 8.1537Z" fill="#61DAFB"></path>
<path fill-rule="evenodd" clip-rule="evenodd" d="M7.42531 2.16015C7.61554 2.31476 7.80747 2.48356 8.00001 2.66557C8.19255 2.48355 8.38448 2.31475 8.57472 2.16014C9.16593 1.67963 9.76254 1.31838 10.3293 1.13503C10.896 0.951703 11.4894 0.930663 12 1.22549C12.5107 1.52032 12.7891 2.04472 12.9137 2.62715C13.0383 3.20965 13.0238 3.90694 12.9032 4.65921C12.8645 4.90126 12.8142 5.15188 12.7529 5.40964C13.0068 5.48538 13.2489 5.56719 13.4779 5.65463C14.1897 5.92638 14.8008 6.26243 15.243 6.66158C15.6851 7.06068 16 7.56404 16 8.1537C16 8.74335 15.6851 9.24671 15.243 9.64581C14.8008 10.045 14.1897 10.381 13.4779 10.6528C13.2489 10.7402 13.0068 10.822 12.7529 10.8978C12.8142 11.1555 12.8645 11.4061 12.9032 11.6482C13.0238 12.4005 13.0383 13.0977 12.9137 13.6802C12.7891 14.2627 12.5107 14.7871 12 15.0819C11.4894 15.3767 10.896 15.3557 10.3293 15.1724C9.76254 14.989 9.16593 14.6278 8.57472 14.1473C8.38448 13.9926 8.19256 13.8238 8.00001 13.6418C7.80747 13.8238 7.61555 13.9926 7.42531 14.1472C6.8341 14.6278 6.23749 14.989 5.67074 15.1724C5.10405 15.3557 4.51067 15.3767 4.00002 15.0819C3.48936 14.7871 3.21089 14.2627 3.08631 13.6802C2.96172 13.0977 2.97627 12.4004 3.09679 11.6482C3.13557 11.4061 3.18579 11.1555 3.24715 10.8978C2.99325 10.822 2.75109 10.7402 2.52208 10.6528C1.81034 10.381 1.19919 10.045 0.757021 9.64581C0.314911 9.24671 0 8.74335 0 8.1537C0 7.56404 0.314911 7.06068 0.757021 6.66158C1.19919 6.26243 1.81034 5.92638 2.52208 5.65463C2.75109 5.56718 2.99325 5.48537 3.24715 5.40963C3.18579 5.15188 3.13557 4.90127 3.09679 4.65922C2.97627 3.90696 2.96172 3.20966 3.08631 2.62716C3.21089 2.04473 3.48936 1.52033 4.00002 1.2255C4.51067 0.930675 5.10405 0.951716 5.67074 1.13504C6.23749 1.31839 6.8341 1.67964 7.42531 2.16015ZM11.915 2.84076C11.826 2.42466 11.6626 2.20994 11.4894 2.10994C11.3162 2.00994 11.0485 1.97575 10.6436 2.10672C10.2389 2.23768 9.75343 2.51819 9.21884 2.95267C9.05249 3.08787 8.88347 3.23627 8.71282 3.39711C9.1128 3.84011 9.50973 4.33506 9.89397 4.87327C10.5522 4.93693 11.1793 5.0332 11.7629 5.15809C11.8169 4.92989 11.8609 4.70932 11.8948 4.49764C12.0038 3.81744 12.004 3.25679 11.915 2.84076ZM6.78119 2.95268C6.94754 3.08788 7.11655 3.23628 7.28719 3.39711C6.88722 3.84011 6.4903 4.33506 6.10605 4.87327C5.44783 4.93693 4.82073 5.0332 4.23709 5.15808C4.18313 4.92989 4.13912 4.70932 4.10521 4.49766C3.99623 3.81745 3.99602 3.2568 4.085 2.84077C4.174 2.42467 4.33745 2.20995 4.51065 2.10995C4.68386 2.00996 4.95153 1.97576 5.35639 2.10674C5.76117 2.23769 6.2466 2.5182 6.78119 2.95268ZM10.6349 5.99216C10.9281 6.03562 11.2112 6.08604 11.483 6.14277C11.3963 6.40653 11.2984 6.67698 11.1894 6.95255C11.1021 6.79132 11.0118 6.62992 10.9187 6.4686C10.8256 6.30728 10.7309 6.14841 10.6349 5.99216ZM12.4757 6.39272C12.2921 6.96061 12.0619 7.55183 11.7879 8.1537C12.0619 8.75557 12.2921 9.34679 12.4757 9.91467C12.7004 9.84731 12.9134 9.77514 13.1136 9.69868C13.7572 9.45295 14.2428 9.17281 14.5586 8.88773C14.8745 8.6026 14.9787 8.35369 14.9787 8.1537C14.9787 7.9537 14.8745 7.70479 14.5586 7.41966C14.2428 7.13459 13.7572 6.85445 13.1136 6.60872C12.9134 6.53226 12.7004 6.46009 12.4757 6.39272ZM10.0343 6.97924C10.2619 7.37346 10.4703 7.76623 10.659 8.1537C10.4703 8.54117 10.2619 8.93393 10.0343 9.32816C9.80664 9.72239 9.57069 10.0993 9.32953 10.4565C8.89958 10.4867 8.45522 10.5026 8 10.5026C7.54479 10.5026 7.10044 10.4867 6.67049 10.4565C6.42933 10.0993 6.19338 9.7224 5.96578 9.32817C5.73817 8.93394 5.52977 8.54117 5.34098 8.1537C5.52977 7.76623 5.73817 7.37345 5.96578 6.97922C6.19338 6.585 6.42933 6.20813 6.67049 5.8509C7.10044 5.82067 7.54479 5.80476 8 5.80476C8.45522 5.80476 8.89958 5.82067 9.32953 5.85091C9.57069 6.20814 9.80664 6.58501 10.0343 6.97924ZM10.9187 9.8388C10.8256 10.0001 10.7309 10.159 10.6349 10.3152C10.9281 10.2718 11.2112 10.2214 11.483 10.1646C11.3963 9.90087 11.2984 9.63042 11.1894 9.35485C11.1021 9.51608 11.0118 9.67748 10.9187 9.8388ZM8 11.5239C8.18628 11.5239 8.37119 11.5214 8.55449 11.5164C8.3703 11.7485 8.18505 11.9685 8.00001 12.1756C7.81497 11.9685 7.62972 11.7485 7.44553 11.5164C7.62882 11.5214 7.81372 11.5239 8 11.5239ZM9.89397 11.4341C9.50973 11.9723 9.1128 12.4673 8.71283 12.9103C8.88347 13.0711 9.05249 13.2195 9.21884 13.3547C9.75343 13.7892 10.2389 14.0697 10.6436 14.2007C11.0485 14.3316 11.3162 14.2975 11.4894 14.1975C11.6626 14.0975 11.826 13.8827 11.915 13.4666C12.004 13.0506 12.0038 12.49 11.8948 11.8098C11.8609 11.5981 11.8169 11.3775 11.7629 11.1493C11.1793 11.2742 10.5522 11.3705 9.89397 11.4341ZM6.10605 11.4341C6.4903 11.9723 6.88722 12.4673 7.28719 12.9103C7.11655 13.0711 6.94754 13.2195 6.78119 13.3547C6.2466 13.7892 5.76117 14.0697 5.35639 14.2007C4.95153 14.3316 4.68386 14.2974 4.51065 14.1974C4.33745 14.0974 4.174 13.8827 4.085 13.4666C3.99602 13.0506 3.99623 12.4899 4.10521 11.8097C4.13912 11.5981 4.18313 11.3775 4.23709 11.1493C4.82073 11.2742 5.44783 11.3705 6.10605 11.4341ZM5.36508 10.3152C5.07196 10.2718 4.78878 10.2214 4.51698 10.1646C4.60374 9.90087 4.70167 9.63042 4.8106 9.35485C4.89793 9.51609 4.98819 9.67749 5.08133 9.83881C5.17446 10.0001 5.26911 10.159 5.36508 10.3152ZM5.08133 6.46859C4.98819 6.62991 4.89793 6.79131 4.8106 6.95255C4.70167 6.67697 4.60374 6.40652 4.51697 6.14276C4.78878 6.08603 5.07196 6.03561 5.36508 5.99216C5.26911 6.1484 5.17446 6.30727 5.08133 6.46859ZM3.52427 9.91468C3.70794 9.34679 3.93812 8.75557 4.2121 8.1537C3.93812 7.55183 3.70794 6.9606 3.52427 6.39272C3.29966 6.46008 3.08664 6.53226 2.88637 6.60872C2.2428 6.85445 1.75716 7.13459 1.44136 7.41966C1.1255 7.70479 1.02128 7.9537 1.02128 8.1537C1.02128 8.35369 1.1255 8.6026 1.44136 8.88773C1.75716 9.17281 2.2428 9.45295 2.88637 9.69868C3.08664 9.77514 3.29966 9.84732 3.52427 9.91468ZM8 4.78349C7.81372 4.78349 7.62882 4.78602 7.44553 4.79101C7.62972 4.55889 7.81497 4.33886 8.00001 4.13183C8.18505 4.33886 8.3703 4.55889 8.55449 4.79101C8.37119 4.78602 8.18628 4.78349 8 4.78349Z" fill="#61DAFB"></path>
</svg>