<svg xmlns="http://www.w3.org/2000/svg" width="32" height="32" viewBox="0 0 16 16" fill="none" fit="" preserveAspectRatio="xMidYMid meet">
  <path fill-rule="evenodd" clip-rule="evenodd" d="M16 7.51096L14.262 10.437L11.825 7.47096L14.262 4.58496L16 7.51096Z" fill="#166DA5"></path>
  <path fill-rule="evenodd" clip-rule="evenodd" d="M14.072 10.937L11.425 7.771L9.83704 10.428L12.304 14.033L14.072 10.937Z" fill="#8FDB69"></path>
  <path opacity="0.95" fill-rule="evenodd" clip-rule="evenodd" d="M14.074 10.947H6.05396L7.81195 13.993H12.306L14.074 10.947Z" fill="#D6EB35"></path>
  <path opacity="0.95" fill-rule="evenodd" clip-rule="evenodd" d="M14.0663 10.947H10.1923L12.2767 13.993H12.306L13.6001 11.7635L14.0663 10.947Z" fill="#C7E339"></path>
  <path opacity="0.95" fill-rule="evenodd" clip-rule="evenodd" d="M11.427 7.76099H15.841L14.253 10.438H9.82898" fill="#C4DF48"></path>
  <path opacity="0.95" fill-rule="evenodd" clip-rule="evenodd" d="M13.6548 10.438H9.84387L9.83704 10.428L11.425 7.771L13.6548 10.438Z" fill="#C9E437"></path>
  <path fill-rule="evenodd" clip-rule="evenodd" d="M7.81 13.993L4.055 7.50103L7.861 1.00903H3.745L0 7.50103L3.745 13.993H7.81Z" fill="#010101"></path>
  <path fill-rule="evenodd" clip-rule="evenodd" d="M14.042 4.06511L11.425 7.24111L9.83704 4.58111L12.304 1.01611L14.042 4.06511Z" fill="#166DA5"></path>
  <path opacity="0.95" fill-rule="evenodd" clip-rule="evenodd" d="M6.06299 4.066H14.043L12.285 1H7.82499L6.06299 4.066Z" fill="#3473B7"></path>
  <path opacity="0.95" fill-rule="evenodd" clip-rule="evenodd" d="M12.2987 1.02393L10.1936 4.06598H14.0414L14.0421 4.06508L13.9859 3.96637L12.2987 1.02393Z" fill="#2978BC"></path>
  <path opacity="0.95" fill-rule="evenodd" clip-rule="evenodd" d="M11.4249 7.25195H15.839L14.2509 4.57495H9.82495" fill="#3493CE"></path>
  <path opacity="0.95" fill-rule="evenodd" clip-rule="evenodd" d="M14.259 4.58838L12.0099 7.25184H15.8389L14.259 4.58838Z" fill="#2999D4"></path>
  <path opacity="0.95" fill-rule="evenodd" clip-rule="evenodd" d="M13.6219 4.57495L11.425 7.24111L9.83704 4.58111L9.8413 4.57495H13.6219Z" fill="#2982C3"></path>
  <path opacity="0.95" fill-rule="evenodd" clip-rule="evenodd" d="M12.0632 7.76099H15.841L14.2571 10.431L12.0632 7.76099Z" fill="#B8D746"></path>
</svg>